<svg width="154" height="154" viewBox="0 0 154 154" fill="none" xmlns="http://www.w3.org/2000/svg">
<path d="M77 152C101.365 152 123.016 140.382 136.716 122.383C123.157 117.953 108.928 115.003 94.2215 113.724L77.5 147L60.7185 113.729C45.7438 115.036 31.2655 118.076 17.4852 122.646C18.0204 123.343 18.5676 124.03 19.1264 124.707C32.8825 141.376 53.7005 152 77 152Z" fill="#9AD26E"/>
<path fill-rule="evenodd" clip-rule="evenodd" d="M77.5 26C56.7893 26 40 42.7893 40 63.5C40 70.1204 41.7156 76.34 44.7264 81.7387C51.1344 93.2288 63.4097 101 77.5 101C91.2842 101 103.331 93.5628 109.848 82.4822C113.122 76.9143 115 70.4264 115 63.5C115 42.7893 98.2107 26 77.5 26ZM77.5 81C87.165 81 95 73.165 95 63.5C95 53.835 87.165 46 77.5 46C67.835 46 60 53.835 60 63.5C60 73.165 67.835 81 77.5 81Z" fill="#F16C6C"/>
<path d="M109.848 82.4822C103.331 93.5628 91.2842 101 77.5 101C63.4097 101 51.1344 93.2288 44.7264 81.7387L45.9758 84.5L60.7185 113.729C66.2481 113.246 71.8453 113 77.5 113C83.1343 113 88.7115 113.245 94.2215 113.724L108.907 84.5L109.848 82.4822Z" fill="white" fill-opacity="0.5"/>
<path d="M60.7185 113.729L77.5 147L94.2215 113.724C88.7115 113.245 83.1343 113 77.5 113C71.8453 113 66.2481 113.246 60.7185 113.729Z" fill="#9AD26E"/>
<path d="M139.191 118.933C147.278 106.963 152 92.533 152 77C152 35.5786 118.421 2 77 2C35.5786 2 2 35.5786 2 77C2 94.1754 7.77334 110.002 17.4852 122.646C31.2655 118.076 45.7438 115.036 60.7185 113.729L45.9758 84.5L44.7264 81.7387C41.7156 76.34 40 70.1204 40 63.5C40 42.7893 56.7893 26 77.5 26C98.2107 26 115 42.7893 115 63.5C115 70.4264 113.122 76.9143 109.848 82.4822L108.907 84.5L94.2215 113.724C108.928 115.003 123.157 117.953 136.716 122.383C137.572 121.258 138.398 120.107 139.191 118.933Z" fill="white"/>
<path d="M95 63.5C95 73.165 87.165 81 77.5 81C67.835 81 60 73.165 60 63.5C60 53.835 67.835 46 77.5 46C87.165 46 95 53.835 95 63.5Z" fill="white"/>
<path d="M136.716 122.383L138.307 123.594L138.307 123.594L136.716 122.383ZM45.9758 84.5L44.1537 85.3245L44.1711 85.363L44.1901 85.4007L45.9758 84.5ZM77.5 147L75.7143 147.901L77.5033 151.448L79.2871 147.898L77.5 147ZM108.907 84.5L110.694 85.398L110.707 85.3719L110.719 85.3453L108.907 84.5ZM19.1264 124.707L17.5838 125.98L17.5838 125.98L19.1264 124.707ZM139.191 118.933L140.848 120.053L140.848 120.053L139.191 118.933ZM4 77C4 36.6832 36.6832 4 77 4V0C34.4741 0 0 34.4741 0 77H4ZM77 4C117.317 4 150 36.6832 150 77H154C154 34.4741 119.526 0 77 0V4ZM135.124 121.172C121.787 138.695 100.714 150 77 150V154C102.016 154 124.246 142.069 138.307 123.594L135.124 121.172ZM42 63.5C42 43.8939 57.8939 28 77.5 28V24C55.6848 24 38 41.6848 38 63.5H42ZM77.5 28C97.1061 28 113 43.8939 113 63.5H117C117 41.6848 99.3152 24 77.5 24V28ZM108.124 81.4683C101.952 91.9632 90.5466 99 77.5 99V103C92.0219 103 104.711 95.1624 111.572 83.496L108.124 81.4683ZM77.5 99C64.1638 99 52.5423 91.6471 46.4731 80.7645L42.9797 82.7128C49.7266 94.8106 62.6556 103 77.5 103V99ZM42.9042 82.5632L44.1537 85.3245L47.798 83.6755L46.5485 80.9142L42.9042 82.5632ZM110.719 85.3453L111.66 83.3275L108.035 81.6368L107.094 83.6547L110.719 85.3453ZM46.4731 80.7645C43.6241 75.656 42 69.7707 42 63.5H38C38 70.47 39.807 77.024 42.9797 82.7128L46.4731 80.7645ZM111.039 75.1963L108.035 81.6368L111.66 83.3275L114.664 76.887L111.039 75.1963ZM46.5485 80.9142L43.9707 75.2172L40.3264 76.8661L42.9042 82.5632L46.5485 80.9142ZM113 63.5C113 70.0603 111.222 76.1993 108.124 81.4683L111.572 83.496C115.022 77.6292 117 70.7926 117 63.5H113ZM93 63.5C93 72.0604 86.0604 79 77.5 79V83C88.2696 83 97 74.2696 97 63.5H93ZM77.5 79C68.9396 79 62 72.0604 62 63.5H58C58 74.2696 66.7304 83 77.5 83V79ZM62 63.5C62 54.9396 68.9396 48 77.5 48V44C66.7304 44 58 52.7304 58 63.5H62ZM77.5 48C86.0604 48 93 54.9396 93 63.5H97C97 52.7304 88.2696 44 77.5 44V48ZM0 77C0 94.6312 5.92826 110.883 15.8991 123.864L19.0713 121.428C9.61842 109.121 4 93.7195 4 77H0ZM18.1148 124.544C31.749 120.022 46.0744 117.015 60.8924 115.721L60.5446 111.737C45.4131 113.057 30.782 116.129 16.8556 120.748L18.1148 124.544ZM58.9328 114.63L75.7143 147.901L79.2857 146.099L62.5043 112.828L58.9328 114.63ZM79.2871 147.898L96.0086 114.622L92.4345 112.826L75.7129 146.102L79.2871 147.898ZM94.0483 115.716C108.601 116.982 122.68 119.901 136.095 124.284L137.337 120.482C123.634 116.005 109.256 113.024 94.3948 111.731L94.0483 115.716ZM77.5 115C83.0764 115 88.5958 115.242 94.0483 115.716L94.3948 111.731C88.8272 111.247 83.1922 111 77.5 111V115ZM44.1901 85.4007L58.9328 114.63L62.5043 112.828L47.7615 83.5993L44.1901 85.4007ZM96.0086 114.622L110.694 85.398L107.12 83.602L92.4345 112.826L96.0086 114.622ZM60.8924 115.721C66.3642 115.244 71.9034 115 77.5 115V111C71.7871 111 66.1319 111.249 60.5447 111.737L60.8924 115.721ZM15.8991 123.864C16.4485 124.58 17.0102 125.285 17.5838 125.98L20.6689 123.434C20.1249 122.775 19.5923 122.106 19.0713 121.428L15.8991 123.864ZM17.5838 125.98C31.7036 143.089 53.0784 154 77 154V150C54.3225 150 34.0614 139.662 20.6689 123.434L17.5838 125.98ZM20.6689 123.434C10.2545 110.815 4 94.6404 4 77H0C0 95.6033 6.59983 112.67 17.5838 125.98L20.6689 123.434ZM140.848 120.053C149.152 107.763 154 92.9444 154 77H150C150 92.1216 145.404 106.164 137.534 117.814L140.848 120.053ZM138.307 123.594C139.187 122.439 140.034 121.258 140.848 120.053L137.534 117.814C136.762 118.956 135.958 120.076 135.124 121.172L138.307 123.594ZM137.534 117.814C124.412 137.237 102.196 150 77 150V154C103.581 154 127.014 140.53 140.848 120.053L137.534 117.814Z" fill="black"/>
</svg>
